<svg width="354" height="402" viewBox="0 0 354 402" fill="none" xmlns="http://www.w3.org/2000/svg">
<g filter="url(#filter0_d_65_2638)">
<path opacity="0.2" d="M345.664 138.037H308.48C306.179 138.037 304.313 139.903 304.313 142.204V161.562C304.313 163.863 306.179 165.729 308.48 165.729H345.664C347.965 165.729 349.83 163.863 349.83 161.562V142.204C349.83 139.903 347.965 138.037 345.664 138.037Z" fill="#263238"/>
<path d="M305.09 141.083L324.88 151.244C325.502 151.557 326.189 151.72 326.885 151.72C327.581 151.72 328.268 151.557 328.89 151.244L349.191 141.005" stroke="white" stroke-width="0.75" stroke-linecap="round" stroke-linejoin="round"/>
<path opacity="0.2" d="M60.7222 136.092C60.5737 135.899 60.3831 135.743 60.1651 135.636C59.9471 135.529 59.7074 135.473 59.4644 135.473H18.8413L17.2494 130.766C17.1388 130.463 16.9382 130.203 16.6746 130.018C16.411 129.834 16.0971 129.734 15.7754 129.734H5.45749C5.0607 129.765 4.6903 129.945 4.42017 130.237C4.15003 130.53 4 130.913 4 131.311C4 131.709 4.15003 132.092 4.42017 132.385C4.6903 132.677 5.0607 132.857 5.45749 132.888H14.606L24.5211 162.653C24.6245 162.967 24.8246 163.241 25.0928 163.435C25.361 163.629 25.6836 163.734 26.0147 163.734H26.5945C26.0644 164.554 25.7652 165.503 25.7286 166.479C25.692 167.455 25.9193 168.423 26.3864 169.281C26.8536 170.139 27.5434 170.855 28.3833 171.354C29.2231 171.853 30.182 172.117 31.1589 172.117C32.1358 172.117 33.0947 171.853 33.9346 171.354C34.7744 170.855 35.4642 170.139 35.9314 169.281C36.3986 168.423 36.6258 167.455 36.5892 166.479C36.5526 165.503 36.2535 164.554 35.7234 163.734H43.2997C42.7695 164.554 42.4704 165.503 42.4338 166.479C42.3972 167.455 42.6245 168.423 43.0916 169.281C43.5588 170.139 44.2486 170.855 45.0885 171.354C45.9283 171.853 46.8872 172.117 47.8641 172.117C48.841 172.117 49.7999 171.853 50.6397 171.354C51.4796 170.855 52.1694 170.139 52.6366 169.281C53.1038 168.423 53.331 167.455 53.2944 166.479C53.2578 165.503 52.9587 164.554 52.4286 163.734H53.647C54.0438 163.702 54.4142 163.523 54.6844 163.23C54.9545 162.938 55.1045 162.555 55.1045 162.157C55.1045 161.759 54.9545 161.375 54.6844 161.083C54.4142 160.791 54.0438 160.611 53.647 160.579H27.1153L25.3858 155.381H54.8655C55.2125 155.38 55.5496 155.265 55.8248 155.054C56.1 154.843 56.2982 154.547 56.3887 154.212L60.8794 137.507C60.9664 137.275 60.9975 137.026 60.9701 136.78C60.9428 136.534 60.8579 136.298 60.7222 136.092ZM31.2424 168.883C30.7915 168.883 30.3508 168.749 29.9759 168.499C29.601 168.248 29.3088 167.892 29.1362 167.476C28.9637 167.059 28.9185 166.601 29.0065 166.158C29.0944 165.716 29.3116 165.31 29.6304 164.991C29.9492 164.672 30.3555 164.455 30.7977 164.367C31.2399 164.279 31.6983 164.324 32.1149 164.497C32.5314 164.669 32.8875 164.962 33.138 165.337C33.3885 165.711 33.5222 166.152 33.5222 166.603C33.5223 166.907 33.4617 167.207 33.3441 167.487C33.2265 167.767 33.0541 168.02 32.8372 168.233C32.6203 168.445 32.3631 168.612 32.0808 168.724C31.7985 168.835 31.4968 168.889 31.1933 168.883H31.2424ZM47.9476 168.883C47.4967 168.883 47.056 168.749 46.6811 168.499C46.3062 168.248 46.014 167.892 45.8414 167.476C45.6688 167.059 45.6237 166.601 45.7117 166.158C45.7996 165.716 46.0168 165.31 46.3356 164.991C46.6544 164.672 47.0606 164.455 47.5029 164.367C47.9451 164.279 48.4035 164.324 48.8201 164.497C49.2366 164.669 49.5927 164.962 49.8432 165.337C50.0937 165.711 50.2274 166.152 50.2274 166.603C50.2275 166.907 50.1669 167.207 50.0493 167.487C49.9317 167.767 49.7593 168.02 49.5424 168.233C49.3255 168.445 49.0683 168.612 48.786 168.724C48.5037 168.835 48.202 168.889 47.8985 168.883H47.9476ZM52.1534 152.178H46.3164V138.627H52.1534V152.178ZM37.3251 138.627H43.1621V152.178H37.3251V138.627ZM34.1708 152.178H28.2748V138.627H34.1708V152.178ZM19.8927 138.627H25.1107V152.178H24.4031L19.8927 138.627ZM55.2684 146.606V138.627H57.4205L55.2684 146.606Z" fill="#263238"/>
<path opacity="0.2" d="M310.082 60.9477L313.727 59.287L312.951 54.9142L308.932 54.5997C308.422 53.2496 307.746 51.9687 306.917 50.787L308.991 47.2888L305.856 44.1443L302.328 46.2471C300.299 44.8676 298.002 43.9301 295.587 43.4957L294.605 39.4668H290.163L289.18 43.5154C287.801 43.7784 286.458 44.2073 285.181 44.7928L282.007 42.0414L278.371 44.5864L279.865 48.5171C278.891 49.519 278.037 50.6303 277.32 51.8286L273.134 51.3963L271.61 55.5726L275.079 57.9211C274.91 58.8946 274.824 59.8809 274.824 60.8691C274.824 61.2916 274.824 61.7044 274.873 62.1171L271.237 64.1512L272.387 68.4454H276.504C277.114 69.7308 277.876 70.9383 278.774 72.0419L276.956 75.6876L280.356 78.5373L283.658 76.1789C284.897 76.8933 286.216 77.4574 287.588 77.8593L288.247 81.7899L292.679 82.1829L294.005 78.4095C295.459 78.2836 296.892 77.9766 298.27 77.4957L301.061 80.3257L304.913 78.1049L303.851 74.2824C304.964 73.3339 305.954 72.2513 306.799 71.0593L310.73 71.7766L312.636 67.8263L309.571 65.2911C309.918 63.8696 310.089 62.4109 310.082 60.9477ZM303.508 60.8691C303.508 63.0633 302.857 65.2083 301.638 67.0327C300.419 68.8571 298.686 70.2791 296.659 71.1188C294.632 71.9585 292.401 72.1782 290.249 71.7501C288.097 71.3221 286.12 70.2654 284.569 68.7139C283.017 67.1623 281.96 65.1855 281.532 63.0335C281.104 60.8814 281.324 58.6507 282.164 56.6235C283.003 54.5963 284.425 52.8636 286.25 51.6446C288.074 50.4255 290.219 49.7749 292.413 49.7749C293.881 49.7683 295.334 50.0531 296.691 50.6128C298.047 51.1725 299.279 51.9958 300.314 53.0351C301.35 54.0745 302.169 55.3091 302.724 56.6673C303.279 58.0256 303.559 59.4805 303.547 60.9477L303.508 60.8691Z" fill="#263238"/>
<path opacity="0.2" d="M296.236 255.73C296.017 256.139 295.964 256.617 296.088 257.063C296.213 257.51 296.505 257.892 296.904 258.128C297.387 258.42 297.965 258.513 298.516 258.387C299.066 258.26 299.545 257.924 299.852 257.45L305.031 249.461L305.129 249.284L311.791 248.576L311.113 249.903C311.009 250.097 310.979 250.322 311.027 250.537C311.076 250.752 311.201 250.942 311.379 251.072C311.479 251.143 311.593 251.191 311.714 251.215C311.835 251.238 311.959 251.236 312.078 251.208C312.198 251.18 312.31 251.127 312.408 251.053C312.506 250.979 312.587 250.885 312.646 250.778L313.993 248.35L319.004 247.82L318.021 249.667C317.919 249.866 317.896 250.096 317.956 250.311C318.016 250.526 318.155 250.71 318.346 250.827C318.37 250.932 318.425 251.027 318.504 251.1C318.583 251.173 318.683 251.22 318.79 251.235C318.896 251.25 319.005 251.232 319.101 251.183C319.197 251.135 319.277 251.059 319.328 250.964L321.205 247.584L324.527 247.23C325.137 247.168 325.727 246.971 326.252 246.654C326.777 246.336 327.225 245.905 327.563 245.393L328.113 244.567L317.943 243.506C317.943 243.506 311.349 242.907 310.317 239.664L315.398 230.171L315.447 230.044L322.492 229.277L324.035 227.233L317.284 225.572L317.746 224.462C317.756 224.439 317.758 224.413 317.751 224.389C317.743 224.364 317.728 224.343 317.707 224.329C317.686 224.315 317.661 224.309 317.635 224.312C317.61 224.315 317.587 224.326 317.569 224.344L316.587 225.327L311.909 219.932L310.573 222.418L313.393 228.52L313.216 228.697L307.723 236.844C306.691 237.708 304.775 238.809 303.183 237.001C300.766 234.377 294.408 224.148 294.408 224.148L293.779 225.71C293.376 226.733 293.376 227.871 293.779 228.894L294.899 231.842L293.376 234.682C293.272 234.876 293.242 235.101 293.29 235.316C293.339 235.531 293.464 235.721 293.642 235.851C293.744 235.92 293.86 235.966 293.981 235.988C294.102 236.01 294.227 236.007 294.347 235.978C294.467 235.95 294.58 235.896 294.678 235.822C294.777 235.748 294.859 235.654 294.919 235.546L295.705 234.131L297.356 238.445L295.902 241.275C295.796 241.472 295.765 241.7 295.816 241.917C295.867 242.134 295.995 242.325 296.177 242.454C296.279 242.523 296.393 242.57 296.514 242.591C296.635 242.613 296.759 242.61 296.878 242.581C296.997 242.552 297.109 242.499 297.206 242.425C297.304 242.351 297.385 242.257 297.445 242.15L298.29 240.774L300.805 247.328L296.236 255.73Z" fill="#263238"/>
<path opacity="0.2" d="M112.636 36.116H66.0384V64.1414H112.636V36.116Z" fill="#263238"/>
<path d="M88.6297 57.9506C93.2047 57.9506 96.9135 54.2418 96.9135 49.6668C96.9135 45.0918 93.2047 41.383 88.6297 41.383C84.0547 41.383 80.3459 45.0918 80.3459 49.6668C80.3459 54.2418 84.0547 57.9506 88.6297 57.9506Z" fill="white"/>
<path opacity="0.2" d="M94.6435 49.6668L85.5343 44.4096V54.9241L94.6435 49.6668Z" fill="#263238"/>
<path opacity="0.2" d="M56.1823 223.715V245.687C55.2744 245.208 54.2613 244.961 53.2343 244.97C50.3846 244.97 48.0852 246.749 48.0852 248.901C48.0852 251.053 50.3846 252.881 53.2343 252.881C58.0297 252.881 58.3835 249.598 58.3835 249.598V230.299L72.0621 228.334V243.074C71.1517 242.601 70.1397 242.358 69.1141 242.366C66.2644 242.366 63.965 244.145 63.965 246.346C63.965 248.547 66.2644 250.276 69.1141 250.276C71.6395 250.276 73.7424 248.852 74.165 246.994L74.2436 228V221.121L56.1823 223.715Z" fill="#263238"/>
<path opacity="0.2" d="M204.986 23.6067V21.0616C204.986 20.642 204.82 20.2396 204.523 19.9429C204.226 19.6462 203.824 19.4796 203.404 19.4796H200.721C200.302 19.4796 199.9 19.6462 199.603 19.9429C199.306 20.2396 199.139 20.642 199.139 21.0616V30.2691H172.608V21.0616C172.608 20.642 172.441 20.2396 172.144 19.9429C171.848 19.6462 171.445 19.4796 171.026 19.4796H168.166C167.752 19.4873 167.357 19.6574 167.066 19.9532C166.776 20.2491 166.613 20.6471 166.613 21.0616V23.6067H162.398C161.921 23.6067 161.464 23.7962 161.126 24.1334C160.789 24.4707 160.6 24.9281 160.6 25.405V37.3639C160.6 37.8418 160.789 38.3002 161.126 38.639C161.463 38.9778 161.92 39.1694 162.398 39.172H166.613V41.6876C166.616 42.0988 166.778 42.4929 167.066 42.7863C167.354 43.0798 167.745 43.2497 168.156 43.2599H171.016C171.435 43.2599 171.838 43.0932 172.134 42.7965C172.431 42.4998 172.598 42.0974 172.598 41.6778V34.416H199.13V41.6287C199.123 41.8414 199.159 42.0532 199.237 42.2515C199.314 42.4498 199.43 42.6305 199.579 42.7828C199.727 42.9351 199.905 43.0558 200.101 43.1378C200.298 43.2198 200.509 43.2613 200.721 43.2599H203.404C203.824 43.2599 204.226 43.0932 204.523 42.7965C204.82 42.4998 204.986 42.0974 204.986 41.6778V39.1327H209.035C209.506 39.1303 209.957 38.944 210.293 38.6137C210.629 38.2833 210.823 37.8349 210.833 37.3639V25.3853C210.828 24.9118 210.636 24.4595 210.299 24.1265C209.963 23.7934 209.508 23.6067 209.035 23.6067H204.986Z" fill="#263238"/>
<path opacity="0.2" d="M185.864 271.718C246.169 271.718 295.057 222.831 295.057 162.525C295.057 102.219 246.169 53.3321 185.864 53.3321C125.558 53.3321 76.6707 102.219 76.6707 162.525C76.6707 222.831 125.558 271.718 185.864 271.718Z" fill="#263238"/>
<path d="M185.864 263.149C241.437 263.149 286.488 218.098 286.488 162.525C286.488 106.952 241.437 61.9009 185.864 61.9009C130.29 61.9009 85.2395 106.952 85.2395 162.525C85.2395 218.098 130.29 263.149 185.864 263.149Z" fill="#6592E9" stroke="#263238" stroke-miterlimit="10"/>
<g opacity="0.2">
<path opacity="0.2" d="M185.864 165.817C185.425 165.82 184.99 165.734 184.585 165.565C184.179 165.397 183.812 165.148 183.505 164.834L120.212 99.8315C119.634 99.2003 119.325 98.3689 119.35 97.5134C119.374 96.6579 119.731 95.8457 120.345 95.2489C120.958 94.6521 121.78 94.3177 122.636 94.3165C123.491 94.3153 124.314 94.6474 124.929 95.2425L188.232 160.196C188.684 160.66 188.99 161.247 189.111 161.883C189.231 162.52 189.161 163.178 188.909 163.775C188.658 164.372 188.235 164.881 187.695 165.239C187.155 165.597 186.521 165.788 185.874 165.787L185.864 165.817Z" fill="#263238"/>
</g>
<path opacity="0.2" d="M157.475 184.812C156.766 184.815 156.076 184.59 155.506 184.17C154.936 183.749 154.516 183.156 154.31 182.479C154.104 181.801 154.121 181.075 154.36 180.409C154.6 179.742 155.047 179.17 155.637 178.778L184.036 159.783C184.762 159.324 185.639 159.166 186.479 159.344C187.32 159.522 188.057 160.022 188.534 160.736C189.012 161.451 189.191 162.324 189.033 163.168C188.876 164.013 188.394 164.762 187.691 165.257L159.302 184.252C158.762 184.614 158.126 184.809 157.475 184.812Z" fill="#263238"/>
<path d="M189.942 162.525C189.944 161.718 189.706 160.929 189.259 160.257C188.812 159.585 188.176 159.061 187.431 158.75C186.686 158.44 185.866 158.358 185.074 158.514C184.282 158.671 183.555 159.058 182.984 159.628C182.412 160.198 182.023 160.925 181.865 161.716C181.707 162.507 181.787 163.328 182.095 164.074C182.404 164.819 182.926 165.457 183.597 165.905C184.268 166.354 185.057 166.593 185.864 166.593C186.944 166.593 187.979 166.165 188.744 165.402C189.508 164.64 189.939 163.605 189.942 162.525Z" fill="#263238" stroke="#263238" stroke-miterlimit="10" stroke-linecap="round"/>
<path d="M185.942 70.902V84.502" stroke="#263238" stroke-width="2" stroke-miterlimit="10" stroke-linecap="round"/>
<path d="M185.942 239.487V253.087" stroke="#263238" stroke-width="2" stroke-miterlimit="10" stroke-linecap="round"/>
<path d="M277.035 161.994H263.425" stroke="#263238" stroke-width="2" stroke-miterlimit="10" stroke-linecap="round"/>
<path d="M108.45 161.994H94.8499" stroke="#263238" stroke-width="2" stroke-miterlimit="10" stroke-linecap="round"/>
<path d="M233.709 84.4332L226.575 96.0188" stroke="#263238" stroke-width="2" stroke-miterlimit="10" stroke-linecap="round"/>
<path d="M145.3 227.97L138.165 239.556" stroke="#263238" stroke-width="2" stroke-miterlimit="10" stroke-linecap="round"/>
<path d="M266.078 118.689L254.109 125.155" stroke="#263238" stroke-width="2" stroke-miterlimit="10" stroke-linecap="round"/>
<path d="M117.765 198.834L105.797 205.3" stroke="#263238" stroke-width="2" stroke-miterlimit="10" stroke-linecap="round"/>
<path d="M263.504 209.771L251.918 202.627" stroke="#263238" stroke-width="2" stroke-miterlimit="10" stroke-linecap="round"/>
<path d="M119.967 121.362L108.381 114.227" stroke="#263238" stroke-width="2" stroke-miterlimit="10" stroke-linecap="round"/>
<path d="M229.248 242.14L222.782 230.161" stroke="#263238" stroke-width="2" stroke-miterlimit="10" stroke-linecap="round"/>
<path d="M149.102 93.8274L142.637 81.8586" stroke="#263238" stroke-width="2" stroke-miterlimit="10" stroke-linecap="round"/>
<path d="M183.8 394C227.059 394 262.128 389.856 262.128 384.743C262.128 379.631 227.059 375.487 183.8 375.487C140.541 375.487 105.472 379.631 105.472 384.743C105.472 389.856 140.541 394 183.8 394Z" fill="#6592E9"/>
<path opacity="0.5" d="M183.8 394C227.059 394 262.128 389.856 262.128 384.743C262.128 379.631 227.059 375.487 183.8 375.487C140.541 375.487 105.472 379.631 105.472 384.743C105.472 389.856 140.541 394 183.8 394Z" fill="white"/>
<path d="M204.819 247.014C204.711 244.833 204.819 241.472 204.908 239.536C205.169 237.971 205.3 236.387 205.301 234.8C205.301 213.731 197.174 211.963 187.131 211.963C177.089 211.963 168.962 215.343 168.962 234.8C168.962 235.311 168.962 235.782 169.011 236.323C169.1 237.168 169.925 245.245 169.168 248.291C168.363 251.505 161.926 252.153 158.231 259.867C154.537 267.581 162.575 278.842 188.782 280.287C214.99 281.731 217.712 264.22 217.712 258.275C217.712 252.33 204.986 250.227 204.819 247.014Z" fill="#263238"/>
<path d="M168.323 236.401L168.972 236.333V236.244L168.323 236.401Z" fill="#263238"/>
<path d="M172.018 265.341C172.018 265.341 161.415 265.92 157.652 268.033C153.888 270.146 153.18 282.616 153.18 282.616L141.9 306.828C141.9 306.828 111.565 285.672 108.981 283.559C106.396 281.446 105.689 279.795 103.085 278.145C100.481 276.494 99.5568 276.504 96.2649 276.504C92.973 276.504 92.5013 276.975 92.7372 277.909C92.973 278.842 94.1522 279.088 95.0857 279.088C96.1178 279.17 97.1425 279.328 98.1516 279.56L88.7378 283.323C86.3892 284.257 86.8609 280.493 84.7482 280.493C82.6355 280.493 82.8615 285.908 86.3892 288.492C89.9169 291.076 92.2852 290.369 95.0857 290.133C97.8863 289.897 104.5 288.964 104.5 288.964C104.5 288.964 122.6 304.952 129.184 310.828C135.768 316.704 144.7 322.345 147.992 319.996C151.284 317.647 163.715 294.604 163.715 294.604L171.704 273.448C171.704 273.448 173.934 269.006 172.018 265.341Z" fill="white"/>
<path opacity="0.1" d="M172.018 265.341C172.018 265.341 161.415 265.92 157.652 268.033C153.888 270.146 153.18 282.616 153.18 282.616L141.9 306.828C141.9 306.828 111.565 285.672 108.981 283.559C106.396 281.446 105.689 279.795 103.085 278.145C100.481 276.494 99.5568 276.504 96.2649 276.504C92.973 276.504 92.5013 276.975 92.7372 277.909C92.973 278.842 94.1522 279.088 95.0857 279.088C96.1178 279.17 97.1425 279.328 98.1516 279.56L88.7378 283.323C86.3892 284.257 86.8609 280.493 84.7482 280.493C82.6355 280.493 82.8615 285.908 86.3892 288.492C89.9169 291.076 92.2852 290.369 95.0857 290.133C97.8863 289.897 104.5 288.964 104.5 288.964C104.5 288.964 122.6 304.952 129.184 310.828C135.768 316.704 144.7 322.345 147.992 319.996C151.284 317.647 163.715 294.604 163.715 294.604L171.704 273.448C171.704 273.448 173.934 269.006 172.018 265.341Z" fill="black"/>
<path d="M172.018 265.341C172.018 265.341 161.415 265.92 157.652 268.033C153.888 270.146 153.18 282.616 153.18 282.616L141.9 306.828C141.9 306.828 111.565 285.672 108.981 283.559C106.396 281.446 105.689 279.795 103.085 278.145C100.481 276.494 99.5568 276.504 96.2649 276.504C92.973 276.504 92.5013 276.975 92.7372 277.909C92.973 278.842 94.1522 279.088 95.0857 279.088C96.1178 279.17 97.1425 279.328 98.1516 279.56L88.7378 283.323C86.3892 284.257 86.8609 280.493 84.7482 280.493C82.6355 280.493 82.8615 285.908 86.3892 288.492C89.9169 291.076 92.2852 290.369 95.0857 290.133C97.8863 289.897 104.5 288.964 104.5 288.964C104.5 288.964 122.6 304.952 129.184 310.828C135.768 316.704 144.7 322.345 147.992 319.996C151.284 317.647 163.715 294.604 163.715 294.604L171.704 273.448C171.704 273.448 173.934 269.006 172.018 265.341Z" stroke="#263238" stroke-miterlimit="10" stroke-linecap="round"/>
<path d="M87.0672 289.013C87.0672 289.013 82.4881 285.298 84.9545 281.663C85.5638 280.758 86.9199 282.124 87.3129 284.61C87.706 287.097 88.9441 288.06 89.5829 288.236" fill="white"/>
<path opacity="0.1" d="M87.0672 289.013C87.0672 289.013 82.4881 285.298 84.9545 281.663C85.5638 280.758 86.9199 282.124 87.3129 284.61C87.706 287.097 88.9441 288.06 89.5829 288.236" fill="black"/>
<path d="M87.0672 289.013C87.0672 289.013 82.4881 285.298 84.9545 281.663C85.5638 280.758 86.9199 282.124 87.3129 284.61C87.706 287.097 88.9441 288.06 89.5829 288.236" stroke="#263238" stroke-miterlimit="10" stroke-linecap="round"/>
<path d="M90.4869 288.197C89.3961 288.197 89.4551 285.249 87.4013 283.844C85.7701 282.694 85.9765 284.954 86.3597 286.792C86.5097 287.546 86.8834 288.237 87.4321 288.775C87.9808 289.313 88.6789 289.673 89.4355 289.809C90.1392 289.985 90.8716 290.015 91.5875 289.897" fill="white"/>
<path opacity="0.1" d="M90.4869 288.197C89.3961 288.197 89.4551 285.249 87.4013 283.844C85.7701 282.694 85.9765 284.954 86.3597 286.792C86.5097 287.546 86.8834 288.237 87.4321 288.775C87.9808 289.313 88.6789 289.673 89.4355 289.809C90.1392 289.985 90.8716 290.015 91.5875 289.897" fill="black"/>
<path d="M90.4869 288.197C89.3961 288.197 89.4551 285.249 87.4013 283.844C85.7701 282.694 85.9765 284.954 86.3597 286.792C86.5097 287.546 86.8834 288.237 87.4321 288.775C87.9808 289.313 88.6789 289.673 89.4355 289.809V289.809C90.1392 289.985 90.8716 290.015 91.5875 289.897" stroke="#263238" stroke-miterlimit="10" stroke-linecap="round"/>
<path d="M104.283 283.392C104.283 283.392 102.741 282.301 99.7435 283.304C96.7464 284.306 93.2089 288.659 92.3933 288.295C91.6303 287.858 91.051 287.161 90.762 286.33C90.3002 285.426 89.406 284.119 88.7967 285.171C87.4406 287.47 91.1354 290.084 91.1354 290.084C91.1354 290.084 91.6464 290.516 94.506 290.172C97.3655 289.828 103.822 288.924 103.822 288.924" fill="white"/>
<path opacity="0.1" d="M104.283 283.392C104.283 283.392 102.741 282.301 99.7435 283.304C96.7464 284.306 93.2089 288.659 92.3933 288.295C91.6303 287.858 91.051 287.161 90.762 286.33C90.3002 285.426 89.406 284.119 88.7967 285.171C87.4406 287.47 91.1354 290.084 91.1354 290.084C91.1354 290.084 91.6464 290.516 94.506 290.172C97.3655 289.828 103.822 288.924 103.822 288.924" fill="black"/>
<path d="M104.283 283.392C104.283 283.392 102.741 282.301 99.7435 283.304C96.7464 284.306 93.2089 288.659 92.3933 288.295C91.6303 287.858 91.051 287.161 90.762 286.33C90.3002 285.426 89.406 284.119 88.7967 285.171C87.4406 287.47 91.1354 290.084 91.1354 290.084C91.1354 290.084 91.6464 290.516 94.506 290.172C97.3655 289.828 103.822 288.924 103.822 288.924" stroke="#263238" stroke-miterlimit="10" stroke-linecap="round"/>
<path d="M163.891 289.563L160.462 279.746" stroke="#263238" stroke-miterlimit="10" stroke-linecap="round"/>
<path d="M199.542 265.124C199.542 265.124 210.715 265.92 214.479 268.072C218.242 270.224 218.95 282.655 218.95 282.655L230.231 306.868C230.231 306.868 260.565 285.711 263.15 283.598C265.734 281.486 266.442 279.835 269.046 278.184C271.65 276.533 272.573 276.543 275.865 276.543C279.157 276.543 279.629 277.015 279.393 277.948C279.157 278.882 277.978 279.127 277.035 279.127C276.006 279.21 274.985 279.368 273.979 279.599L283.383 283.363C285.741 284.296 285.269 280.532 287.382 280.532C289.495 280.532 289.269 285.947 285.741 288.531C282.213 291.116 279.845 290.408 277.035 290.172C274.224 289.936 267.631 289.003 267.631 289.003C267.631 289.003 249.53 304.991 242.946 310.867C236.362 316.743 227.43 322.384 224.138 320.035C220.846 317.687 208.416 294.643 208.416 294.643L200.427 273.487C200.427 273.487 197.636 268.79 199.542 265.124Z" fill="white"/>
<path opacity="0.1" d="M199.542 265.124C199.542 265.124 210.715 265.92 214.479 268.072C218.242 270.224 218.95 282.655 218.95 282.655L230.231 306.868C230.231 306.868 260.565 285.711 263.15 283.598C265.734 281.486 266.442 279.835 269.046 278.184C271.65 276.533 272.573 276.543 275.865 276.543C279.157 276.543 279.629 277.015 279.393 277.948C279.157 278.882 277.978 279.127 277.035 279.127C276.006 279.21 274.985 279.368 273.979 279.599L283.383 283.363C285.741 284.296 285.269 280.532 287.382 280.532C289.495 280.532 289.269 285.947 285.741 288.531C282.213 291.116 279.845 290.408 277.035 290.172C274.224 289.936 267.631 289.003 267.631 289.003C267.631 289.003 249.53 304.991 242.946 310.867C236.362 316.743 227.43 322.384 224.138 320.035C220.846 317.687 208.416 294.643 208.416 294.643L200.427 273.487C200.427 273.487 197.636 268.79 199.542 265.124Z" fill="black"/>
<path d="M199.542 265.124C199.542 265.124 210.715 265.92 214.479 268.072C218.242 270.224 218.95 282.655 218.95 282.655L230.231 306.868C230.231 306.868 260.565 285.711 263.15 283.598C265.734 281.486 266.442 279.835 269.046 278.184C271.65 276.533 272.573 276.543 275.865 276.543C279.157 276.543 279.629 277.015 279.393 277.948C279.157 278.882 277.978 279.127 277.035 279.127C276.006 279.21 274.985 279.368 273.979 279.599L283.383 283.363C285.741 284.296 285.269 280.532 287.382 280.532C289.495 280.532 289.269 285.947 285.741 288.531C282.213 291.116 279.845 290.408 277.035 290.172C274.224 289.936 267.631 289.003 267.631 289.003C267.631 289.003 249.53 304.991 242.946 310.867C236.362 316.743 227.43 322.384 224.138 320.035C220.846 317.687 208.416 294.643 208.416 294.643L200.427 273.487C200.427 273.487 197.636 268.79 199.542 265.124Z" stroke="#263238" stroke-miterlimit="10" stroke-linecap="round"/>
<path d="M208.416 287.509L211.147 279.52" stroke="#263238" stroke-miterlimit="10" stroke-linecap="round"/>
<path d="M286.193 287.676C286.193 287.676 288.158 282.124 287.176 281.663C286.193 281.201 285.21 282.124 284.817 284.611C284.424 287.097 283.186 288.06 282.547 288.237" fill="white"/>
<path opacity="0.1" d="M287.539 286.478C287.539 286.478 288.178 282.124 287.176 281.663C286.173 281.201 285.21 282.124 284.817 284.611C284.424 287.097 283.186 288.06 282.547 288.237" fill="black"/>
<path d="M286.193 287.676C286.193 287.676 288.158 282.124 287.176 281.663C286.193 281.201 285.21 282.124 284.817 284.611C284.424 287.097 283.186 288.06 282.547 288.237" stroke="#263238" stroke-miterlimit="10" stroke-linecap="round"/>
<path d="M284.699 288.669C284.699 288.669 287.176 281.663 284.306 283.52C282.194 284.886 282.734 288.197 281.643 288.197" fill="white"/>
<path opacity="0.1" d="M285.269 288.748C285.269 288.748 287.176 281.663 284.287 283.52C282.174 284.886 282.714 288.197 281.624 288.197" fill="black"/>
<path d="M284.699 288.669C284.699 288.669 287.176 281.663 284.306 283.52C282.194 284.886 282.734 288.197 281.643 288.197" stroke="#263238" stroke-miterlimit="10" stroke-linecap="round"/>
<path d="M267.827 283.392C267.827 283.392 269.37 282.301 272.367 283.304C275.364 284.306 278.902 288.659 279.717 288.295C280.48 287.858 281.06 287.161 281.349 286.33C281.801 285.426 282.626 284.886 283.166 285.967C283.707 287.047 282.076 290.241 282.076 290.241C282.076 290.241 281.093 290.939 278.686 290.379C275.967 289.725 273.205 289.268 270.421 289.013" fill="white"/>
<path opacity="0.1" d="M267.827 283.392C267.827 283.392 269.37 282.301 272.367 283.304C275.364 284.306 278.902 288.659 279.717 288.295C280.48 287.858 281.06 287.161 281.349 286.33C281.801 285.426 282.626 284.886 283.166 285.967C283.707 287.047 282.076 290.241 282.076 290.241C282.076 290.241 281.093 290.939 278.686 290.379C276.278 289.819 269.773 288.089 268.289 288.089" fill="black"/>
<path d="M267.827 283.392C267.827 283.392 269.37 282.301 272.367 283.304C275.364 284.306 278.902 288.659 279.717 288.295C280.48 287.858 281.06 287.161 281.349 286.33C281.801 285.426 282.626 284.886 283.166 285.967C283.707 287.047 282.076 290.241 282.076 290.241C282.076 290.241 281.093 290.939 278.686 290.379C275.967 289.725 273.205 289.268 270.421 289.013" stroke="#263238" stroke-miterlimit="10" stroke-linecap="round"/>
<path d="M181.668 251.033C181.668 251.033 181.186 256.506 178.936 260.201C176.686 263.896 172.057 265.341 172.057 265.341L162.899 293.484L167.685 312.508C167.685 312.508 159.155 325.479 155.804 333.36C152.453 341.241 156.482 350.154 160.02 353.849C163.557 357.543 168.254 362.555 180.243 362.083C196.948 361.425 208.74 362.948 214.095 356.679C219.451 350.409 219.991 338.568 213.624 329.636C209.772 324.202 204.515 312.459 204.515 312.459L209.723 292.855L201.743 265.341C201.743 265.341 196.938 265.065 194.049 261.528C191.16 257.99 191.799 251.554 191.799 251.554L181.668 251.033Z" fill="white"/>
<path opacity="0.1" d="M181.668 251.033C181.668 251.033 181.186 256.506 178.936 260.201C176.686 263.896 172.057 265.341 172.057 265.341L162.899 293.484L167.685 312.508C167.685 312.508 159.155 325.479 155.804 333.36C152.453 341.241 156.482 350.154 160.02 353.849C163.557 357.543 168.254 362.555 180.243 362.083C196.948 361.425 208.74 362.948 214.095 356.679C219.451 350.409 219.991 338.568 213.624 329.636C209.772 324.202 204.515 312.459 204.515 312.459L209.723 292.855L201.743 265.341C201.743 265.341 196.938 265.065 194.049 261.528C191.16 257.99 191.799 251.554 191.799 251.554L181.668 251.033Z" fill="black"/>
<path d="M181.668 251.033C181.668 251.033 181.186 256.506 178.936 260.201C176.686 263.896 172.057 265.341 172.057 265.341L162.899 293.484L167.685 312.508C167.685 312.508 159.155 325.479 155.804 333.36C152.453 341.241 156.482 350.154 160.02 353.849C163.557 357.543 168.254 362.555 180.243 362.083C196.948 361.425 208.74 362.948 214.095 356.679C219.451 350.409 219.991 338.568 213.624 329.636C209.772 324.202 204.515 312.459 204.515 312.459L209.723 292.855L201.743 265.341C201.743 265.341 196.938 265.065 194.049 261.528C191.16 257.99 191.799 251.554 191.799 251.554L181.668 251.033Z" stroke="#263238" stroke-miterlimit="10" stroke-linecap="round"/>
<path d="M209.723 292.855L201.743 265.341C200.943 265.284 200.151 265.153 199.375 264.948C200.299 271.345 199.198 274.548 199.198 274.548C199.04 275.952 198.548 277.297 197.764 278.472C196.979 279.646 195.924 280.616 194.688 281.299C190.354 283.873 182.149 284.355 177 280.179C173.069 277.024 173.806 268.387 174.386 264.328C173.628 264.735 172.836 265.073 172.018 265.341L162.86 293.484L167.685 312.508H204.495L209.723 292.855Z" fill="#263238" stroke="#263238" stroke-miterlimit="10" stroke-linecap="round"/>
<path d="M173.875 238.268C173.875 238.268 170.927 234.416 169.886 237.286C168.844 240.155 174.023 242.7 174.023 242.7L173.875 238.268Z" fill="white"/>
<path opacity="0.1" d="M173.875 238.268C173.875 238.268 170.927 234.416 169.886 237.286C168.844 240.155 174.023 242.7 174.023 242.7L173.875 238.268Z" fill="black"/>
<path d="M173.875 238.268C173.875 238.268 170.927 234.416 169.886 237.286C168.844 240.155 174.023 242.7 174.023 242.7L173.875 238.268Z" stroke="#263238" stroke-miterlimit="10" stroke-linecap="round"/>
<path d="M199.945 238.268C199.945 238.268 202.942 234.416 203.935 237.286C204.927 240.155 199.808 242.7 199.808 242.7L199.945 238.268Z" fill="white"/>
<path opacity="0.1" d="M199.945 238.268C199.945 238.268 202.942 234.416 203.935 237.286C204.927 240.155 199.808 242.7 199.808 242.7L199.945 238.268Z" fill="black"/>
<path d="M199.945 238.268C199.945 238.268 202.942 234.416 203.935 237.286C204.927 240.155 199.808 242.7 199.808 242.7L199.945 238.268Z" stroke="#263238" stroke-miterlimit="10" stroke-linecap="round"/>
<path d="M187.043 254.875C183.613 254.875 180.324 253.513 177.899 251.088C175.474 248.662 174.111 245.373 174.111 241.943V222.104C174.11 221.47 174.233 220.843 174.475 220.258C174.716 219.673 175.071 219.141 175.518 218.693C175.965 218.244 176.496 217.889 177.081 217.646C177.666 217.404 178.293 217.279 178.926 217.279H195.11C195.751 217.267 196.388 217.383 196.984 217.62C197.58 217.858 198.122 218.211 198.579 218.66C199.037 219.109 199.4 219.645 199.648 220.237C199.896 220.828 200.024 221.463 200.024 222.104V241.973C200.019 243.672 199.679 245.354 199.024 246.923C198.368 248.491 197.411 249.914 196.205 251.113C195 252.311 193.571 253.26 191.998 253.905C190.426 254.551 188.742 254.88 187.043 254.875Z" fill="white"/>
<path opacity="0.1" d="M187.043 254.875C183.613 254.875 180.324 253.513 177.899 251.088C175.474 248.662 174.111 245.373 174.111 241.943V222.104C174.11 221.47 174.233 220.843 174.475 220.258C174.716 219.673 175.071 219.141 175.518 218.693C175.965 218.244 176.496 217.889 177.081 217.646C177.666 217.404 178.293 217.279 178.926 217.279H195.11C195.751 217.267 196.388 217.383 196.984 217.62C197.58 217.858 198.122 218.211 198.579 218.66C199.037 219.109 199.4 219.645 199.648 220.237C199.896 220.828 200.024 221.463 200.024 222.104V241.973C200.019 243.672 199.679 245.354 199.024 246.923C198.368 248.491 197.411 249.914 196.205 251.113C195 252.311 193.571 253.26 191.998 253.905C190.426 254.551 188.742 254.88 187.043 254.875Z" fill="black"/>
<path d="M187.043 254.875C183.613 254.875 180.324 253.513 177.899 251.088C175.474 248.662 174.111 245.373 174.111 241.943V222.104C174.11 221.47 174.233 220.843 174.475 220.258C174.716 219.673 175.071 219.141 175.518 218.693C175.965 218.244 176.496 217.889 177.081 217.646C177.666 217.404 178.293 217.279 178.926 217.279H195.11C195.751 217.267 196.388 217.383 196.984 217.62C197.58 217.858 198.122 218.211 198.579 218.66C199.037 219.109 199.4 219.645 199.648 220.237C199.896 220.828 200.024 221.463 200.024 222.104V241.973C200.019 243.672 199.679 245.354 199.024 246.923C198.368 248.491 197.411 249.914 196.205 251.113C195 252.311 193.571 253.26 191.998 253.905C190.426 254.551 188.742 254.88 187.043 254.875V254.875Z" stroke="#263238" stroke-miterlimit="10" stroke-linecap="round"/>
<path d="M177.423 233.139C178.31 233.727 179.35 234.041 180.415 234.041C181.479 234.041 182.52 233.727 183.407 233.139" stroke="#263238" stroke-miterlimit="10" stroke-linecap="round"/>
<path d="M190.826 233.139C191.711 233.727 192.75 234.041 193.813 234.041C194.876 234.041 195.916 233.727 196.801 233.139" stroke="#263238" stroke-miterlimit="10" stroke-linecap="round"/>
<path d="M188.261 231.007L189.116 239.261H185.697" stroke="#263238" stroke-miterlimit="10" stroke-linecap="round"/>
<path d="M185.834 243.958H189.254" stroke="#263238" stroke-miterlimit="10" stroke-linecap="round"/>
<path d="M187.171 217.249H178.926C178.293 217.249 177.666 217.374 177.081 217.617C176.496 217.859 175.965 218.215 175.518 218.663C175.071 219.111 174.716 219.643 174.475 220.228C174.233 220.814 174.11 221.441 174.111 222.074V231.901C179.388 227.312 185.53 219.421 187.171 217.249Z" fill="#263238" stroke="#263238" stroke-miterlimit="10"/>
<path d="M200.024 232.274V222.104C200.024 220.824 199.515 219.597 198.611 218.692C197.706 217.787 196.479 217.279 195.199 217.279H187.819C189.519 222.664 196.093 228.982 200.024 232.274Z" fill="#263238" stroke="#263238" stroke-miterlimit="10"/>
<path d="M176.863 229.297C176.863 229.297 178.405 226.585 183.319 227.017" stroke="#263238" stroke-width="2" stroke-miterlimit="10" stroke-linecap="round"/>
<path d="M189.824 227.017C191.131 226.472 192.587 226.402 193.94 226.818C195.294 227.234 196.459 228.111 197.233 229.297" stroke="#263238" stroke-width="2" stroke-miterlimit="10" stroke-linecap="round"/>
<path d="M155.804 333.36C152.424 341.221 156.482 350.154 160.02 353.849C163.557 357.543 168.254 362.555 180.243 362.083C196.948 361.425 208.74 362.948 214.095 356.679C219.451 350.409 219.991 338.568 213.624 329.636C212.184 327.521 210.871 325.323 209.693 323.052H161.16C159.181 326.384 157.393 329.825 155.804 333.36Z" fill="#263238" stroke="#263238" stroke-miterlimit="10" stroke-linecap="round"/>
<path d="M182.1 349.309C173.639 340.534 158.28 336.141 150.753 334.883C143.226 333.626 129.439 326.039 129.439 326.039C129.439 326.039 121.283 325.764 121.912 335.483C122.541 345.201 146.046 356.492 155.146 361.504C159.233 363.809 163.814 365.102 168.503 365.273C173.193 365.444 177.856 364.488 182.1 362.486" fill="#263238"/>
<path d="M182.1 349.309C173.639 340.534 158.28 336.141 150.753 334.883C143.226 333.626 129.439 326.039 129.439 326.039C129.439 326.039 121.283 325.764 121.912 335.483C122.541 345.201 146.046 356.492 155.146 361.504C159.233 363.809 163.814 365.102 168.503 365.273C173.193 365.444 177.856 364.488 182.1 362.486" stroke="#263238" stroke-miterlimit="10" stroke-linecap="round"/>
<path d="M187.397 349.623C195.857 340.848 211.216 336.456 218.743 335.198C226.271 333.94 237.974 327.533 237.974 327.533C237.974 327.533 248.213 326.108 247.584 335.827C246.956 345.545 223.45 356.826 214.351 361.847C210.263 364.151 205.683 365.442 200.993 365.613C196.304 365.784 191.642 364.83 187.397 362.83" fill="#263238"/>
<path d="M187.397 349.623C195.857 340.848 211.216 336.456 218.743 335.198C226.271 333.94 237.974 327.533 237.974 327.533C237.974 327.533 248.213 326.108 247.584 335.827C246.956 345.545 223.45 356.826 214.351 361.847C210.263 364.151 205.683 365.442 200.993 365.613C196.304 365.784 191.642 364.83 187.397 362.83" stroke="#263238" stroke-miterlimit="10" stroke-linecap="round"/>
<path d="M222.713 364.962C222.713 364.962 223.873 364.196 223.293 362.26C222.713 360.324 219.618 361.867 217.486 361.867C215.353 361.867 207.227 361.091 203.365 360.708C200.053 360.373 194.639 360.472 193.135 360.501C193.354 362.882 192.865 365.275 191.73 367.38L192.487 367.458C199.071 368.107 201.93 368.235 203.945 368.657C207.62 369.434 211.678 372.529 215.736 372.342C219.795 372.156 223.48 369.394 223.48 367.694C223.52 366.725 223.252 365.769 222.713 364.962Z" fill="white"/>
<path opacity="0.1" d="M222.713 364.962C222.713 364.962 223.873 364.196 223.293 362.26C222.713 360.324 219.618 361.867 217.486 361.867C215.353 361.867 207.227 361.091 203.365 360.708C200.053 360.373 194.639 360.472 193.135 360.501C193.354 362.882 192.865 365.275 191.73 367.38L192.487 367.458C199.071 368.107 201.93 368.235 203.945 368.657C207.62 369.434 211.678 372.529 215.736 372.342C219.795 372.156 223.48 369.394 223.48 367.694C223.52 366.725 223.252 365.769 222.713 364.962Z" fill="black"/>
<path d="M222.713 364.962C222.713 364.962 223.873 364.196 223.293 362.26C222.713 360.324 219.618 361.867 217.486 361.867C215.353 361.867 207.227 361.091 203.365 360.708C200.053 360.373 194.639 360.472 193.135 360.501C193.354 362.882 192.865 365.275 191.73 367.38L192.487 367.458C199.071 368.107 201.93 368.235 203.945 368.657C207.62 369.434 211.678 372.529 215.736 372.342C219.795 372.156 223.48 369.394 223.48 367.694C223.52 366.725 223.252 365.769 222.713 364.962V364.962Z" stroke="#263238" stroke-miterlimit="10" stroke-linecap="round"/>
<path d="M222.713 364.962C221.585 365.153 220.432 365.153 219.304 364.962" stroke="#263238" stroke-miterlimit="10" stroke-linecap="round"/>
<path d="M223.49 367.675C221.988 367.79 220.481 367.79 218.979 367.675" stroke="#263238" stroke-miterlimit="10" stroke-linecap="round"/>
<path d="M218.223 369.404C219.28 369.995 220.511 370.197 221.701 369.974" stroke="#263238" stroke-miterlimit="10" stroke-linecap="round"/>
<path d="M216.729 370.672C217.73 371.153 218.852 371.327 219.952 371.173" stroke="#263238" stroke-miterlimit="10" stroke-linecap="round"/>
<path d="M191.73 367.36C192.865 365.255 193.354 362.863 193.135 360.482H192.713C192.713 360.482 177.816 357.416 165.434 349.849C153.053 342.283 137.37 330.697 129.439 326.049C121.509 321.401 113.953 328.368 114.7 335.728C115.446 343.088 121.47 346.95 132.309 351.451C143.148 355.951 162.889 362.869 173.335 364.992C178.749 366.063 185.726 366.8 191.73 367.36Z" fill="#263238" stroke="#263238" stroke-miterlimit="10" stroke-linecap="round"/>
<path d="M174.327 369.404C173.196 367.298 172.711 364.906 172.932 362.525H173.345C173.345 362.525 188.242 359.43 200.633 351.883C213.024 344.336 228.688 332.721 236.628 328.073C244.568 323.425 252.105 330.402 251.368 337.753C250.631 345.103 244.597 348.975 233.758 353.426C222.92 357.877 203.188 364.845 192.732 366.977C187.308 368.097 180.371 368.834 174.327 369.404Z" fill="#263238" stroke="#263238" stroke-miterlimit="10" stroke-linecap="round"/>
<path d="M172.932 362.545C172.932 362.545 158.595 363.105 154.045 362.791C149.496 362.476 146.046 360.275 144.798 361.376C143.55 362.476 145.113 364.196 145.113 364.196C145.113 364.196 144.641 366.859 145.899 368.274C147.157 369.689 148.847 370.937 154.202 372.509C159.558 374.082 165.012 371.861 167.96 371.075L174.298 369.404C174.298 369.404 172.843 367.154 172.932 362.545Z" fill="white"/>
<path opacity="0.1" d="M172.932 362.545C172.932 362.545 158.595 363.105 154.045 362.791C149.496 362.476 146.046 360.275 144.798 361.376C143.55 362.476 145.113 364.196 145.113 364.196C145.113 364.196 144.641 366.859 145.899 368.274C147.157 369.689 148.847 370.937 154.202 372.509C159.558 374.082 165.012 371.861 167.96 371.075L174.298 369.404C174.298 369.404 172.843 367.154 172.932 362.545Z" fill="black"/>
<path d="M172.932 362.545C172.932 362.545 158.595 363.105 154.045 362.791C149.496 362.476 146.046 360.275 144.798 361.376C143.55 362.476 145.113 364.196 145.113 364.196C145.113 364.196 144.641 366.859 145.899 368.274C147.157 369.689 148.847 370.937 154.202 372.509C159.558 374.082 165.012 371.861 167.96 371.075L174.298 369.404C174.298 369.404 172.843 367.154 172.932 362.545Z" stroke="#263238" stroke-miterlimit="10" stroke-linecap="round"/>
<path d="M145.113 364.196C145.437 363.978 145.818 363.862 146.209 363.862C146.599 363.862 146.98 363.978 147.304 364.196C148.055 364.708 148.911 365.044 149.81 365.179" stroke="#263238" stroke-miterlimit="10" stroke-linecap="round"/>
<path d="M145.29 367.242C145.54 367.016 145.842 366.855 146.169 366.773C146.497 366.691 146.839 366.69 147.167 366.771C147.915 366.984 148.688 367.096 149.466 367.105" stroke="#263238" stroke-miterlimit="10" stroke-linecap="round"/>
<path d="M147.687 369.728C147.687 369.728 147.963 368.932 148.483 368.932C149.004 368.932 151.156 369.217 151.716 369.168" stroke="#263238" stroke-miterlimit="10" stroke-linecap="round"/>
<path d="M150.734 371.281C150.734 371.281 151.254 370.573 151.716 370.534C152.309 370.451 152.906 370.402 153.505 370.387" stroke="#263238" stroke-miterlimit="10" stroke-linecap="round"/>
<path d="M180.223 362.083C180.223 362.083 210.214 347.343 222.33 338.961" stroke="white" stroke-miterlimit="10" stroke-linecap="round"/>
<path d="M146.371 337.075C146.371 337.075 171.998 357.111 186.443 358.506" stroke="white" stroke-miterlimit="10" stroke-linecap="round"/>
<path d="M158.369 336.534C158.369 336.534 177.865 342.577 182.935 350.38" stroke="white" stroke-miterlimit="10" stroke-linecap="round"/>
<path d="M189.765 347.648C189.765 347.648 201.852 339.069 214.331 336.534" stroke="white" stroke-miterlimit="10" stroke-linecap="round"/>
</g>
<defs>
<filter id="filter0_d_65_2638" x="0" y="19.4796" width="353.83" height="382.52" filterUnits="userSpaceOnUse" color-interpolation-filters="sRGB">
<feFlood flood-opacity="0" result="BackgroundImageFix"/>
<feColorMatrix in="SourceAlpha" type="matrix" values="0 0 0 0 0 0 0 0 0 0 0 0 0 0 0 0 0 0 127 0" result="hardAlpha"/>
<feOffset dy="4"/>
<feGaussianBlur stdDeviation="2"/>
<feComposite in2="hardAlpha" operator="out"/>
<feColorMatrix type="matrix" values="0 0 0 0 0 0 0 0 0 0 0 0 0 0 0 0 0 0 0.25 0"/>
<feBlend mode="normal" in2="BackgroundImageFix" result="effect1_dropShadow_65_2638"/>
<feBlend mode="normal" in="SourceGraphic" in2="effect1_dropShadow_65_2638" result="shape"/>
</filter>
</defs>
</svg>
